<?xml version="1.0" encoding="UTF-8" standalone="no"?>
<svg width="125px" height="54px" viewBox="0 0 125 54" version="1.1" xmlns="http://www.w3.org/2000/svg" xmlns:xlink="http://www.w3.org/1999/xlink" xmlns:sketch="http://www.bohemiancoding.com/sketch/ns">
    <!-- Generator: Sketch 3.0.4 (8053) - http://www.bohemiancoding.com/sketch -->
    <title>Group</title>
    <desc>Created with Sketch.</desc>
    <defs></defs>
    <g id="Landing-Page" stroke="none" stroke-width="1" fill="none" fill-rule="evenodd" sketch:type="MSPage">
        <g id="FINAL-2" sketch:type="MSArtboardGroup" transform="translate(-267.000000, -1504.000000)">
            <g id="Group" sketch:type="MSLayerGroup" transform="translate(267.000000, 1504.000000)">
                <rect id="Rectangle-5" fill="#222222" sketch:type="MSShapeGroup" x="0" y="0" width="125" height="54" rx="4"></rect>
                <text id="get-it-for-4" sketch:type="MSTextLayer" font-family="Avenir Next" font-size="12" font-weight="normal" letter-spacing="0.599999964" fill="#FFFFFF">
                    <tspan x="10" y="21">get it for</tspan>
                </text>
                <text id="Android-2" sketch:type="MSTextLayer" font-family="Avenir Next" font-size="14" font-weight="526" letter-spacing="0.699999988" fill="#FFFFFF">
                    <tspan x="10" y="40">Android</tspan>
                </text>
                <g id="Robot" transform="translate(86.000000, 13.000000)" sketch:type="MSShapeGroup">
                    <path d="M20.5229474,9.91608033 L20.5229474,22.114539 C20.5229474,23.2232473 19.6490726,24.1211073 18.5715712,24.1211073 L6.13397021,24.1211073 C5.05660527,24.1211073 4.18341285,23.2232473 4.18341285,22.114539 L4.18341285,9.91608033" id="Fill-1" fill="#FFFFFF"></path>
                    <path d="M20.5229474,9.91608033 L20.5229474,22.114539 C20.5229474,23.2232473 19.6490726,24.1211073 18.5715712,24.1211073 L6.13397021,24.1211073 C5.05660527,24.1211073 4.18341285,23.2232473 4.18341285,22.114539 L4.18341285,9.91608033" id="Stroke-2" stroke="#FFFFFF" stroke-width="0.86"></path>
                    <path d="M20.5804051,9.25995186 C20.5804051,4.97097173 16.8947906,1.49365929 12.347721,1.49365929 C7.8014702,1.49365929 4.11599224,4.97097173 4.11599224,9.25995186 L20.5804051,9.25995186" id="Fill-3" fill="#FFFFFF"></path>
                    <path d="M-0.180092593,19.3131483 C-0.180092593,20.3516675 0.638235277,21.1926743 1.64749722,21.1926743 C2.65675916,21.1926743 3.47508703,20.3516675 3.47508703,19.3131483 L3.47508703,11.4405894 C3.47508703,10.4027721 2.65675916,9.56092307 1.64749722,9.56092307 C0.638235277,9.56092307 -0.180092593,10.4027721 -0.180092593,11.4405894 L-0.180092593,19.3131483" id="Fill-4" fill="#FFFFFF"></path>
                    <path d="M7.46313884,28.2852911 C7.46313884,29.3239506 8.28133023,30.1652381 9.29059217,30.1652381 C10.2998541,30.1652381 11.1180455,29.3239506 11.1180455,28.2852911 L11.1180455,23.7813916 C11.1180455,22.7435744 10.2998541,21.9017254 9.29059217,21.9017254 C8.28133023,21.9017254 7.46313884,22.7435744 7.46313884,23.7813916 L7.46313884,28.2852911" id="Fill-5" fill="#FFFFFF"></path>
                    <path d="M9.29400415,5.48461616 C9.29400415,5.87655255 8.98487929,6.19394803 8.60451242,6.19394803 C8.22346315,6.19394803 7.91474774,5.87655255 7.91474774,5.48461616 C7.91474774,5.09296053 8.22346315,4.77514391 8.60451242,4.77514391 C8.98487929,4.77514391 9.29400415,5.09296053 9.29400415,5.48461616" id="Fill-6" fill="#FFFFFF"></path>
                    <path d="M7.26347012,-0.0279017857 L8.70277728,2.67143376" id="Stroke-7" stroke="#FFFFFF" stroke-width="3.722" stroke-linecap="round" stroke-linejoin="round"></path>
                    <path d="M24.8830409,19.3131483 C24.8830409,20.3516675 24.0652589,21.1926743 23.055724,21.1926743 C22.0465986,21.1926743 21.2282707,20.3516675 21.2282707,19.3131483 L21.2282707,11.4405894 C21.2282707,10.4026317 22.0465986,9.56092307 23.055724,9.56092307 C24.0652589,9.56092307 24.8830409,10.4026317 24.8830409,11.4405894 L24.8830409,19.3131483" id="Fill-8" fill="#FFFFFF"></path>
                    <path d="M17.2402189,28.2852911 C17.2402189,29.3239506 16.4217545,30.1652381 15.4126291,30.1652381 C14.4035036,30.1652381 13.5853122,29.3239506 13.5853122,28.2852911 L13.5853122,23.7813916 C13.5853122,22.7435744 14.4035036,21.9017254 15.4126291,21.9017254 C16.4217545,21.9017254 17.2402189,22.7435744 17.2402189,23.7813916 L17.2402189,28.2852911" id="Fill-9" fill="#FFFFFF"></path>
                    <path d="M15.4092171,5.48461616 C15.4092171,5.87655255 15.718342,6.19394803 16.0991183,6.19394803 C16.4796216,6.19394803 16.788337,5.87655255 16.788337,5.48461616 C16.788337,5.09296053 16.4796216,4.77514391 16.0991183,4.77514391 C15.718342,4.77514391 15.4092171,5.09296053 15.4092171,5.48461616" id="Fill-10" fill="#FFFFFF"></path>
                    <path d="M17.4397511,-0.0279017857 L16.0007169,2.67143376" id="Stroke-11" stroke="#FFFFFF" stroke-width="3.722" stroke-linecap="round" stroke-linejoin="round"></path>
                </g>
            </g>
        </g>
    </g>
</svg>