<?xml version="1.0" encoding="utf-8"?>
<!-- Generator: Adobe Illustrator 15.1.0, SVG Export Plug-In . SVG Version: 6.00 Build 0)  -->
<!DOCTYPE svg PUBLIC "-//W3C//DTD SVG 1.1//EN" "http://www.w3.org/Graphics/SVG/1.1/DTD/svg11.dtd">
<svg version="1.1" xmlns="http://www.w3.org/2000/svg" xmlns:xlink="http://www.w3.org/1999/xlink" x="0px" y="0px" width="125px"
	 height="54px" viewBox="0 0 125 54" enable-background="new 0 0 125 54" xml:space="preserve">
<g id="Layer_1" xmlns:sketch="http://www.bohemiancoding.com/sketch/ns">
	<title>Group</title>
	<desc>Created with Sketch.</desc>
	<g id="Landing-Page" sketch:type="MSPage">
		<g id="FINAL" transform="translate(-152.000000, -1530.000000)" sketch:type="MSArtboardGroup">
			<g id="Group" transform="translate(152.000000, 1530.000000)" sketch:type="MSLayerGroup">
				<path id="Rectangle-6" sketch:type="MSShapeGroup" fill="#222222" d="M4,0h117c2.209,0,4,1.791,4,4v46c0,2.209-1.791,4-4,4H4
					c-2.209,0-4-1.791-4-4V4C0,1.791,1.791,0,4,0z"/>
				<text transform="matrix(1 0 0 1 15 21)" fill="#FFFFFF" font-family="'AvenirNext-Regular'" font-size="14">coming</text>
				<text transform="matrix(1 0 0 1 15 40)" fill="#FFFFFF" font-family="'AvenirNext-Regular'" font-size="14">soon</text>
				<g id="Apple" transform="translate(86.000000, 12.000000)" sketch:type="MSShapeGroup">
					<path id="Fill-1" fill="#FFFFFF" d="M18.686,14.76c-0.031-3.581,2.879-5.323,3.014-5.404c-1.648-2.448-4.203-2.782-5.104-2.809
						c-2.146-0.23-4.227,1.308-5.32,1.308c-1.113,0-2.797-1.286-4.61-1.248C4.329,6.644,2.145,8.02,0.948,10.158
						c-2.474,4.359-0.63,10.764,1.739,14.287c1.185,1.728,2.567,3.652,4.381,3.586c1.771-0.073,2.436-1.15,4.574-1.15
						c2.119,0,2.74,1.15,4.588,1.105c1.903-0.028,3.103-1.731,4.244-3.476c1.368-1.977,1.92-3.925,1.94-4.024
						C22.373,20.471,18.723,19.051,18.686,14.76"/>
					<path id="Fill-2" fill="#FFFFFF" d="M15.193,4.229c0.953-1.214,1.604-2.867,1.426-4.543c-1.381,0.062-3.105,0.972-4.1,2.16
						c-0.879,1.046-1.666,2.762-1.463,4.375C12.607,6.339,14.199,5.424,15.193,4.229"/>
				</g>
			</g>
		</g>
	</g>
	<rect x="3" y="1" fill="#222222" width="78" height="50"/>
</g>
<g id="Layer_2">
	<text transform="matrix(1 0 0 1 9.9995 21)" fill="#FFFFFF" font-family="'AvenirNext-Regular'" font-size="12">get it for</text>
	<text transform="matrix(1 0 0 1 10.333 40)" fill="#FFFFFF" font-family="'AvenirNext-Regular'" font-size="14">iOS</text>
</g>
<g id="Layer_3">
</g>
</svg>
